<?xml version="1.0" standalone="no"?>
<!DOCTYPE svg PUBLIC "-//W3C//DTD SVG 20010904//EN"
 "http://www.w3.org/TR/2001/REC-SVG-20010904/DTD/svg10.dtd">
<svg version="1.0" xmlns="http://www.w3.org/2000/svg"
 width="500.000000pt" height="500.000000pt" viewBox="0 0 500.000000 500.000000"
 preserveAspectRatio="xMidYMid meet">

<g transform="translate(0.000000,500.000000) scale(0.100000,-0.100000)"
fill="#000000" stroke="none">
<path d="M2584 4057 c-79 -30 -147 -104 -160 -174 -4 -24 -12 -33 -26 -33 -55
0 -183 -36 -258 -73 -120 -58 -239 -177 -298 -297 -118 -238 -88 -521 74 -720
58 -71 157 -151 229 -185 195 -92 445 -85 623 18 107 61 211 167 261 264 17
35 27 43 58 49 55 9 96 37 121 82 60 107 -15 234 -138 234 -91 0 -151 -55
-157 -144 -5 -63 17 -111 65 -144 l31 -21 -37 -63 c-110 -186 -350 -311 -567
-296 -162 11 -284 66 -402 181 -66 66 -90 97 -122 165 -93 193 -93 371 0 559
90 182 298 329 488 342 l42 3 24 -58 c30 -73 56 -102 120 -132 109 -51 276 -9
213 54 -20 20 -48 14 -60 -13 -15 -33 -65 -33 -135 -1 -39 18 -58 35 -78 70
-50 86 -43 165 22 237 61 68 183 87 204 32 11 -28 45 -29 63 0 33 53 -108 98
-200 64z m551 -899 c64 -50 65 -131 4 -183 -55 -46 -142 -27 -173 39 -20 43
-20 59 0 102 30 63 115 84 169 42z"/>
<path d="M3016 3108 c-34 -48 -7 -108 48 -108 48 0 70 21 70 65 0 44 -22 65
-70 65 -23 0 -38 -7 -48 -22z"/>
<path d="M2173 3489 c-78 -23 -95 -108 -42 -217 29 -58 32 -75 39 -205 8 -145
31 -236 75 -303 27 -41 38 -17 44 98 4 57 12 113 19 126 18 32 71 62 108 62
55 0 76 -38 104 -190 11 -62 25 -119 32 -127 19 -23 52 -11 70 28 29 57 49
220 42 326 -6 89 -6 94 30 182 20 50 36 103 36 117 0 50 -43 105 -82 103 -7 0
-3 -4 9 -9 56 -23 71 -98 34 -166 l-22 -39 8 45 c14 89 -5 139 -61 156 -21 7
-21 7 -1 15 11 5 -8 6 -45 2 -87 -8 -102 -16 -64 -36 40 -22 22 -21 -98 7
-129 31 -194 38 -235 25z m217 -36 c92 -25 146 -49 85 -38 -17 3 -66 12 -110
20 -44 8 -106 15 -137 15 -50 0 -59 -3 -78 -27 -17 -22 -21 -38 -18 -76 2 -40
1 -45 -9 -30 -22 28 -16 98 10 128 42 50 96 51 257 8z"/>
<path d="M2175 2250 c-66 -14 -105 -61 -105 -127 1 -100 95 -158 199 -122 30
10 31 13 31 65 0 41 -4 54 -15 54 -11 0 -15 -12 -15 -44 0 -48 -9 -56 -65 -56
-44 0 -92 41 -101 84 -7 39 15 90 47 107 21 11 84 8 127 -6 16 -5 22 -3 22 8
0 25 -76 47 -125 37z"/>
<path d="M1350 2120 c0 -123 1 -130 20 -130 18 0 20 7 20 60 l0 60 75 0 75 0
0 -60 c0 -53 2 -60 20 -60 19 0 20 7 20 130 0 123 -1 130 -20 130 -18 0 -20
-7 -20 -55 l0 -55 -75 0 -75 0 0 55 c0 48 -2 55 -20 55 -19 0 -20 -7 -20 -130z"/>
<path d="M1720 2244 c0 -4 20 -40 45 -81 37 -61 45 -82 45 -123 0 -43 3 -50
20 -50 17 0 20 7 20 46 0 45 14 76 88 192 13 20 13 22 -4 22 -12 0 -29 -17
-46 -48 -54 -95 -50 -94 -98 -19 -23 37 -48 67 -56 67 -8 0 -14 -3 -14 -6z"/>
<path d="M2470 2120 c0 -123 1 -130 20 -130 19 0 20 7 20 130 0 123 -1 130
-20 130 -19 0 -20 -7 -20 -130z"/>
<path d="M2680 2120 l0 -130 95 0 c78 0 95 3 95 15 0 12 -16 15 -80 15 l-80 0
0 45 0 45 70 0 c56 0 70 3 70 15 0 12 -14 15 -70 15 l-70 0 0 40 0 40 75 0
c60 0 75 3 75 15 0 12 -17 15 -90 15 l-90 0 0 -130z"/>
<path d="M3020 2121 c0 -124 1 -131 20 -131 18 0 20 8 22 97 l3 97 78 -97 c43
-53 84 -97 92 -97 12 0 15 22 15 130 0 123 -1 130 -20 130 -19 0 -20 -7 -20
-96 l0 -96 -76 94 c-42 51 -85 94 -95 96 -18 3 -19 -5 -19 -127z"/>
<path d="M3420 2120 l0 -130 95 0 c78 0 95 3 95 15 0 12 -15 15 -75 15 l-75 0
0 45 0 45 65 0 c51 0 65 3 65 15 0 12 -14 15 -65 15 l-65 0 0 40 0 40 75 0
c60 0 75 3 75 15 0 12 -17 15 -95 15 l-95 0 0 -130z"/>
<path d="M1670 1704 l0 -116 75 4 c68 3 78 6 106 35 24 23 32 40 33 70 2 78
-56 123 -159 123 l-55 0 0 -116z m156 62 c21 -18 28 -32 28 -61 0 -54 -38 -85
-105 -85 l-49 0 0 85 0 85 49 0 c38 0 56 -6 77 -24z"/>
<path d="M2010 1705 l0 -115 80 0 c64 0 80 3 80 15 0 12 -14 15 -65 15 l-65 0
0 35 0 35 55 0 c42 0 55 3 55 15 0 12 -13 15 -55 15 l-55 0 0 35 0 35 60 0
c47 0 60 3 60 15 0 12 -15 15 -75 15 l-75 0 0 -115z"/>
<path d="M2290 1705 c0 -94 3 -115 15 -115 11 0 15 19 17 87 l3 88 69 -88 c38
-48 75 -87 83 -87 10 0 13 26 13 115 0 94 -3 115 -15 115 -11 0 -15 -19 -17
-86 l-3 -87 -69 87 c-38 47 -76 86 -83 86 -10 0 -13 -27 -13 -115z"/>
<path d="M2590 1805 c0 -11 11 -15 40 -15 l40 0 0 -100 c0 -82 3 -100 15 -100
12 0 15 18 15 100 l0 100 40 0 c29 0 40 4 40 15 0 12 -17 15 -95 15 -78 0 -95
-3 -95 -15z"/>
<path d="M2903 1705 c-36 -80 -47 -115 -37 -115 7 0 20 14 29 30 15 28 19 30
75 30 56 0 60 -2 75 -30 9 -16 22 -30 29 -30 10 0 -1 35 -37 115 -33 72 -58
115 -67 115 -9 0 -34 -43 -67 -115z m92 28 c11 -26 22 -51 23 -55 2 -4 -20 -8
-48 -8 -28 0 -50 3 -48 8 2 4 11 28 22 55 10 26 21 47 25 47 3 0 15 -21 26
-47z"/>
<path d="M3190 1705 l0 -115 80 0 c64 0 80 3 80 15 0 12 -14 15 -65 15 l-65 0
0 100 c0 82 -3 100 -15 100 -12 0 -15 -19 -15 -115z"/>
</g>
</svg>
